<?xml version="1.0" encoding="UTF-8" standalone="no"?> <svg width="64" height="64" viewBox="0 0 64 64" fill="none" xmlns="http://www.w3.org/2000/svg">
<path d="M4 60.25H31.75V4.95996L4 60.25Z" fill="#78B9EB"/>
<path d="M60.8899 59.55L32.8899 3.54998C32.8517 3.46676 32.7973 3.39197 32.7299 3.32998C32.6364 3.23007 32.5233 3.15042 32.3977 3.09597C32.2722 3.04152 32.1368 3.01343 31.9999 3.01343C31.863 3.01343 31.7276 3.04152 31.6021 3.09597C31.4765 3.15042 31.3634 3.23007 31.2699 3.32998C31.2025 3.39197 31.1481 3.46676 31.1099 3.54998L3.1099 59.55C3.03319 59.7022 2.99667 59.8715 3.00381 60.0418C3.01094 60.2122 3.06149 60.3778 3.15067 60.5231C3.23984 60.6684 3.36467 60.7885 3.5133 60.8719C3.66194 60.9554 3.82944 60.9995 3.9999 61H59.9999C60.1704 60.9995 60.3379 60.9554 60.4865 60.8719C60.6351 60.7885 60.76 60.6684 60.8491 60.5231C60.9383 60.3778 60.9889 60.2122 60.996 60.0418C61.0031 59.8715 60.9666 59.7022 60.8899 59.55ZM32.9999 49.74H53.7499L54.6299 51.49H32.9999V49.74ZM32.9999 47.74V46H51.8799L52.7499 47.75L32.9999 47.74ZM32.9999 44V42.24H49.9999L50.8799 44H32.9999ZM32.9999 40.25V38.49H48.1299L48.9999 40.24L32.9999 40.25ZM32.9999 36.5V34.74H46.2499L47.1299 36.49L32.9999 36.5ZM32.9999 32.75V31H44.3699L45.2499 32.76L32.9999 32.75ZM32.9999 29V27.23H42.4999L43.3699 29H32.9999ZM32.9999 25.25V23.47H40.6199L41.4999 25.23L32.9999 25.25ZM32.9999 21.49V19.73H38.7499L39.6199 21.47L32.9999 21.49ZM32.9999 17.75V16H36.8699L37.7499 17.75H32.9999ZM32.9999 14V12.22H34.9999L35.8699 14H32.9999ZM32.9999 10.24V8.23998L33.9999 10.24H32.9999ZM32.9999 53.51H55.6299L56.5099 55.27H32.9999V53.51ZM30.9999 8.23998V59H5.6199L30.9999 8.23998ZM32.9999 59V57.25H57.5099L58.3799 59H32.9999Z" fill="#006DF0"/>
</svg>
