<?xml version="1.0" encoding="utf-8" ?><svg xmlns="http://www.w3.org/2000/svg" xmlns:xlink="http://www.w3.org/1999/xlink" width="1024" height="1024" viewBox="0 0 1024 1024"><path fill="#661EDF" d="M502.113 65.2267C531.152 64.8156 556.619 67.048 584.936 74.1292C629.173 85.1049 670.538 105.451 706.234 133.793C716.145 141.642 725.398 150.302 734 159.502C735.221 160.808 749.128 166.059 752.213 167.329C759.001 170.165 765.7 173.208 772.301 176.456C815.228 197.234 857.395 227.036 882.559 268.42C922.154 333.54 894.841 395.019 833.192 431.274C826.679 477.435 812.465 517.18 786.46 556.235C741.701 624.781 673.875 675.032 595.265 697.887C579.906 702.332 569.014 703.597 553.682 706.672C545.897 764.21 539.206 822.253 529.693 879.591C526.039 901.613 522.309 929.034 517.388 950.434C516.952 952.665 517.313 952.815 516.006 954.146C512.614 952.91 510.437 937.802 509.666 934.153L502.362 898.393C492.639 848.181 483.937 797.777 476.26 747.212C475.498 742.103 470.9 707.281 470.096 706.701C468.344 705.438 460.112 704.978 457.508 704.406C444.011 701.437 430.7 698.113 417.56 693.814C377.789 680.408 340.651 660.192 307.802 634.069C254.669 591.702 211.131 527.44 196.034 461C193.75 450.95 191.818 442.762 190.671 432.499C180.528 425.964 170.537 419.353 161.45 411.341C140.977 393.705 123.427 365.402 122.384 337.496C119.292 254.768 204.208 196.597 271.61 167.384C277.312 164.912 283.916 162.962 289.079 159.941C294.172 156.42 298.384 151.34 303.087 147.259C316.131 135.938 330.303 124.753 344.947 115.5C392.17 85.5692 446.285 68.2594 502.113 65.2267ZM139.163 354.137C162.313 278.899 336.879 249.751 406.045 241.672C419.372 240.115 433.935 239.731 447.364 238.278C448.492 246.913 448.644 259.175 449.126 268.155L452.351 325.998C456.836 399.839 460.362 472.767 466.948 546.556C473.539 624.591 482.737 702.384 494.527 779.805C498.332 804.35 502.365 828.86 506.627 853.33C509.036 866.766 512.904 884.591 514.532 897.573C515.095 894.315 515.959 889.977 516.137 886.779C518.583 874.213 520.35 858.898 522.105 846.118L530.972 781.558C546.53 660.634 557.795 539.197 564.744 417.475L571.245 311.308C572.133 294.509 573.107 277.714 574.167 260.925C574.604 253.729 574.813 245.779 575.452 238.713C588.146 239.173 602.152 240.645 614.898 241.948C677.312 248.329 740.448 260.695 798.502 285.062C823.321 295.48 848.693 307.675 867.933 327.31C875.375 334.906 880.854 344.106 883.697 354.363C910.291 246.976 757.286 178.13 675.422 158.321C617.158 144.389 557.293 138.307 497.418 140.238C473.771 141.479 450.752 141.227 426.978 144.242C335.218 155.879 235.334 184.106 170.544 254.034C144.067 282.61 130.015 315.42 139.163 354.137ZM357.473 384.989C356.705 421.418 359.315 446.859 363.699 482.401C366.425 482.594 368.891 482.786 371.611 483.113C384.681 485.234 400.489 486.492 413.738 487.644C423.506 488.493 438.228 489.943 448.044 490.049C447.868 483.015 442.066 384.504 441.416 382.833C440.502 382.655 440.86 382.567 440.309 382.803C413.209 384.061 384.675 384.494 357.473 384.989ZM573.971 489.942C600.256 488.537 621.681 486.329 647.61 483.885C650.502 483.422 653.237 482.937 656.164 482.748C656.422 476.307 657.226 469.783 657.891 463.362C660.575 437.434 660.679 412.064 660.034 386.061C633.431 384.726 607.423 384.384 580.922 383.41C580.124 390.265 579.958 397.871 579.659 404.819C578.44 433.169 575.354 461.636 573.971 489.942ZM397.089 603.784C410.675 607.051 444.691 611.438 459.126 612.134C455.928 577.509 451.238 539.444 449.695 505.003C430.14 504.635 407.789 501.914 388.223 499.953C383.128 499.443 370.208 498.05 365.692 496.859C369.87 522.706 378.061 551.948 386.315 576.688C389.427 586.016 393.723 594.816 397.089 603.784ZM572.643 504.527C569.619 534.558 568.352 565.034 565.153 595.091C564.572 600.547 563.943 606.532 563.675 611.985C564.291 612.472 563.966 612.378 564.602 612.4C579.984 610.587 595.314 609.137 610.59 606.535C614.316 605.9 618.739 605.046 622.423 604.794C625.281 599.719 628.933 590.147 631.02 584.496C639.954 560.037 646.677 534.828 651.108 509.169C651.535 506.831 653.573 499.567 652.785 497.675L652.144 497.726C628.16 501.521 597.162 503.942 572.643 504.527ZM367.652 296.784C366.37 307.972 363.651 319.075 362.492 330.299C361.138 343.413 358.735 357.282 358.403 370.405C362.639 370.038 365.861 369.939 370.125 369.913C393.575 369.378 417.293 368.076 440.675 367.86C439.303 341.188 437.613 314.534 435.605 287.902C434.691 287.944 431.549 288.031 430.847 288.213C409.686 290.314 388.608 293.173 367.652 296.784ZM581.987 369.065C605.927 368.932 631.335 370.725 655.25 371.058C657.237 371.045 658.116 371.376 659.616 370.54C659.637 365.861 657.814 348.999 657.056 343.961C655.046 330.604 652.862 310.069 649.196 297.25C635.35 294.514 621.423 292.198 607.436 290.305C601.396 289.494 592.49 288.937 587.053 287.961C585.329 304.095 584.586 321.705 583.624 338.012C583.094 346.991 581.862 360.534 581.987 369.065ZM667.765 495.216C667.153 501.675 665.351 510.011 664.075 516.522C659.806 538.993 653.848 561.11 646.252 582.684C644.359 588.145 641.847 595.974 639.253 600.873L639.602 601.303C656.661 597.532 673.613 593.295 690.44 588.596C709.746 551.059 715.758 523.385 724.795 483.455C724.509 482.627 724.755 482.845 724.354 482.574C707.726 487.912 685.009 492.194 667.765 495.216ZM332.568 588.211C346.294 592.248 359.823 596.039 373.857 598.861C375.97 599.286 379.265 599.964 381.178 600.691C366.261 566.313 357.715 530.908 351.051 494.214C335.143 492.612 313.75 486.43 298.391 482.212C305.998 519.925 314.915 553.618 332.568 588.211ZM669.975 480.389C676.467 478.621 682.768 477.847 689.33 476.461C699.239 474.299 709.088 471.865 718.864 469.163C721.642 468.534 724.566 467.819 727.341 467.255C731.477 441.73 733.205 415.873 732.501 390.025C716.417 387.801 691.858 387.62 674.982 386.367C675.141 409.71 675.292 432.128 672.918 455.392C672.038 464.015 671.662 471.729 669.975 480.389ZM291.874 388.681C291.372 407.308 292.317 448.097 296.11 466.354L296.272 467.16C299.016 467.82 305.089 469.474 307.622 469.838C321.407 473.6 335.567 475.76 348.966 479.29C344.602 451.715 342.991 413.158 343.783 385.88C342.547 385.287 343.212 385.477 341.642 385.722C325.694 386.54 307.667 387.22 291.874 388.681ZM674.143 371.921C692.093 370.801 714.651 375.369 731.704 375.026C730.363 360.972 726.727 328.602 722.441 315.319C700.618 308.442 687.126 304.986 664.604 300.299C668.44 319.505 674.111 352.591 674.143 371.921ZM302.362 312.325C299.977 320.196 297.873 332.708 296.638 340.804C296.078 344.477 292.583 371.983 293.235 373.778C294.292 373.962 293.833 373.985 294.612 373.853C311.02 372.165 328.97 372.114 344.456 370.474C344.323 354.948 347.368 335.703 349.391 320.199C350.151 314.373 352.343 305.022 352.68 299.662L352.184 299.593C346.572 301.163 341.15 301.928 335.716 303.352C324.834 306.202 313.097 309.061 302.362 312.325ZM468.653 693.211C466.66 678.718 464.838 664.202 463.184 649.667C462.463 643.351 460.994 632.588 460.897 626.473C451.845 626.632 411.609 622.639 404.153 619.917C416.593 645.162 441.812 682.915 468.653 693.211ZM631.147 617.219C616.556 644.327 603.208 667.18 578.413 686.429C578.616 687.097 578.507 686.959 578.678 687.107C624.31 676.732 653.932 643.497 679.693 607.011L679.312 606.622C668.198 609.745 642.623 616.63 631.147 617.219ZM772.884 466.527C769.27 493.653 760.631 521.887 750.887 547.516C749.993 549.866 741.687 567.631 741.642 568.417C750.177 562.507 761.531 558.233 768.539 550.508C777.144 541.025 790.476 479.327 793.184 464.398C793.572 462.26 794.266 459.656 793.864 457.501C786.553 461.312 780.559 463.507 772.884 466.527ZM561.992 627.117C561.465 632.174 555.692 686.799 556.375 687.883L556.725 687.781C576.357 673.727 589.48 660.107 602.764 639.774C606.589 633.919 610.097 626.975 613.81 621.462C613.602 621.376 613.394 621.29 613.186 621.205C603.07 622.583 593.039 623.963 582.889 625.11C576.082 625.88 568.634 626.069 561.992 627.117ZM434.26 684.541C414.342 666.122 398.428 641.408 387.24 616.76C374.257 614.081 354.889 609.691 342.582 605.453C365.474 635.149 384.901 663.732 421.395 679.299C424.211 680.501 431.694 683.879 434.26 684.541ZM281.135 567.231C269.644 548.424 259.469 513.045 253.858 491.447C252.03 484.411 250.376 471.586 248.187 465.463C243.767 463.474 233.547 459.264 229.808 457.151C233.147 485.741 243.25 520.898 253.87 548.173C256.402 554.676 274.126 564.262 281.135 567.231ZM184.453 411.105C186.302 412.341 187.747 413.289 189.482 414.709C188.269 400.583 188.567 386.542 189.6 372.44C189.795 369.787 189.98 366.874 189.987 364.236C179.6 359.237 172.602 354.108 165.561 344.806C164.726 343.703 162.678 340.54 161.989 339.866C156.078 348.352 148.255 360.463 150.536 371.25C153.946 387.377 171.775 402.384 184.453 411.105ZM832.336 364.161C834.319 374.665 835.807 404.196 833.511 414.483C835.108 413.201 836.821 411.745 838.495 410.601C850.936 400.85 865.913 389.827 870.969 374C874.421 363.194 868.919 347.933 860.667 340.438C851.197 352.042 845.851 357.074 832.336 364.161ZM315.365 582.235C300.636 549.678 289.029 513.912 284.272 478.42L262.97 470.966C269.31 502.384 278.518 532.385 292.635 561.234C300.689 577.694 299.172 575.838 315.365 582.235ZM739.282 478.287C736.948 488.981 735.235 499.833 732.587 510.532C726.755 534.096 719.056 560.256 708.219 581.976L708.543 582.408C713.303 579.839 718.19 578.302 722.795 575.858C739.627 546.89 752.914 505.868 758.917 472.733L758.494 472.031C752.125 474.766 745.982 476.526 739.282 478.287ZM255.886 392.238C256.104 415.389 256.971 431.631 260.165 454.682C261.824 455.392 263.99 456.401 265.643 456.988C271.053 459 276.45 461.068 281.946 462.833C280.772 458.352 280.272 451.247 279.854 446.495C278.67 434.423 278.06 422.303 278.023 410.174C278.012 407.023 278.431 391.812 277.955 390.324C271.165 391.01 262.551 392.097 255.886 392.238ZM741.133 462.986C745.687 461.378 750.695 459.726 755.166 457.996L762.003 455.454C765.05 430.696 765.45 417.48 765.984 393.067C760.177 392.853 751.376 391.912 745.556 391.065C747.897 402.509 743.635 451.174 741.133 462.986ZM661.825 284.71C682.518 288.367 699.105 293.121 718.925 298.32C715.857 289.781 713.636 281.096 710.44 272.582C699.626 270.575 688.906 268.042 678.044 265.94C671.843 264.741 661.301 263.339 655.759 261.815C657.687 268.802 660.703 277.796 661.825 284.71ZM257.611 377.783C264.555 376.935 272.445 375.792 279.347 375.232C280.211 363.127 281.523 351.058 283.278 339.05C284.014 334.311 286.882 321.942 286.881 317.882L286.588 317.567C281.88 319.482 263.607 325.723 262.756 329.158C259.465 342.457 257.416 363.454 256.831 377.023C257.45 377.76 257.125 377.598 257.611 377.783ZM493.124 126.116C501.157 125.417 509.384 125.445 517.458 125.394C522.114 125.423 526.77 125.495 531.425 125.612C527.686 110.711 524.212 96.7802 519.661 82.1055C514.723 81.5851 511.58 81.5413 506.577 81.5972C504.971 82.3345 504.599 82.3753 503.931 84.4428C499.59 97.8817 496.281 112.358 493.124 126.116ZM377.616 259.928C375.849 267.11 373.665 273.942 371.989 281.174C375.496 280.31 378.334 279.704 381.89 279.077C398.939 277.527 417.879 273.292 435.018 273.431C434.493 267.901 433.993 260.455 433.993 254.862C432.139 254.912 426.879 254.95 425.322 255.213C409.118 256.843 393.931 257.995 377.616 259.928ZM319.648 151.647C331.136 147.68 342.158 144.619 353.909 141.48C363.131 129.334 372.07 120.957 382.736 110.462L382.494 110.116C371.238 116.499 359.373 122.969 348.666 130.164C338.696 136.864 329.471 144.168 319.465 150.927L319.384 151.412L319.648 151.647ZM396.236 133.156C406.102 120.404 416.38 107.521 428.71 97.0008C430.751 95.2591 432.872 93.6054 434.797 91.7338L434.707 91.0749C429.24 93.2932 413.549 99.8679 408.692 103.168C397.792 110.575 378.951 127.556 370.481 137.776L370.365 138.589C378.976 136.371 388.215 135.251 396.236 133.156ZM673.818 142.659C682.848 145.047 691.742 147.456 700.571 150.504C702.559 151.191 705.099 152.129 707.111 152.574C692.404 139.451 674.423 127.863 657.526 117.842C654.396 115.986 647.029 111.414 643.839 110.453C646.909 113.764 651.736 117.464 655.423 121.067C662.673 128.152 667.583 135.288 673.818 142.659ZM457.265 119.059C455.827 121.458 454.147 123.967 453.225 126.571L453.603 127.059C463.042 126.768 473.292 126.159 482.837 125.733L483.544 117.756L483.005 117.206C474.432 117.917 465.851 118.535 457.265 119.059ZM326.11 630.672C316.571 620.278 308.576 609.838 300.667 598.154C298.392 594.793 295.969 590.673 293.534 587.523C288.501 585.267 283.886 583.169 278.967 580.691C276.326 579.36 270.108 575.736 267.882 574.974C271.399 579.043 279.841 588.764 283.234 592.425C289.715 599.418 319.075 627.819 326.11 630.672ZM231.424 520.115C223.779 496.804 218.267 472.847 214.955 448.539C211.307 446.533 209.048 445.044 205.591 442.83C210.151 466.443 216.135 487.236 226.076 509.135C227.179 511.566 229.679 518.862 231.424 520.115ZM797.436 439.707C798.657 424.294 799.538 412.643 799.584 397.201C795.309 396.846 783.187 395.317 779.035 394.288C779.189 409.189 777.845 436.083 775.18 450.611C779.469 448.112 784.116 446.195 788.664 444.192L797.436 439.707ZM809.262 447.957C807.56 453.234 806.534 464.194 805.316 470.264C802.266 485.475 799.12 501.071 794.075 515.773L794.497 516.085C803.752 497.903 811.219 475.136 815.757 455.377C816.428 452.455 818.39 444.864 818.639 442.277L818.246 441.96C814.637 444.911 813.245 445.633 809.262 447.957ZM245.957 449.382C244.566 439.162 243.637 428.885 243.171 418.582C242.985 415.198 243.255 395.613 242.183 394.115L241.373 394.265C235.59 394.879 229.329 395.707 223.607 396.221C224.805 410.888 224.687 424.441 226.844 439.564C229.885 441.402 232.487 442.904 235.633 444.546C239.065 446.179 242.506 447.791 245.957 449.382ZM655.492 656.998C673.919 643.496 699.18 615.257 710.714 595.953L710.681 595.064C706.772 597.088 704.119 597.814 699.872 599.13C697.726 601.447 696.443 603.844 694.831 606.534C685.757 621.672 674.705 635.72 662.804 648.738C660.387 651.382 657.575 653.639 655.405 656.45L655.492 656.998ZM729.986 587.619C722.034 600.709 709.446 618.683 699.26 630.104L699.425 630.678L699.482 630.708C715.526 617.178 731.626 604.468 745.153 588.305C748.83 583.91 752.504 579.519 756.148 575.098L755.971 574.566C746.424 580.936 740.585 583.44 729.986 587.619ZM465.115 107.869C471.835 106.988 479.423 105.853 486.153 105.99C486.957 102.679 491.919 84.4197 491.589 83.1002L490.79 82.9188C480.591 86.2872 473.195 93.7076 466.988 102.211C465.883 103.724 464.11 106.056 463.829 107.862L465.115 107.869ZM311.371 594.368C317.026 600.218 321.667 607.753 326.529 613.869C333.942 623.195 358.425 652.521 368.419 656.168L368.014 655.674C363.31 650.023 357.32 644.65 352.771 639.135C342.481 626.66 332.883 612.376 324.019 598.846C319.984 597.414 315.398 595.655 311.371 594.368ZM560.163 107.715C552.627 96.9994 544.619 85.36 531.57 82.2469C533.597 89.6812 536.258 98.6797 537.758 106.106C543.906 106.008 554.081 106.624 560.163 107.715ZM807.81 341.253C811.107 343.981 814.431 346.675 817.781 349.336C814.913 337.652 811.702 310.681 801.857 302.499C801.329 302.06 798.085 300.661 797.263 300.314C802.463 313.324 804.687 327.826 807.81 341.253ZM821.366 311.399C826.225 325.692 828.642 335.055 831.004 350.071C834.74 347.363 838.828 344.544 842.276 341.52C845.282 338.327 848.723 334.818 850.981 331.05C844.707 326.085 840.474 322.811 833.615 318.564C830.505 316.638 823.709 313.078 821.366 311.399ZM203.15 425.217C205.103 426.9 205.635 427.413 207.84 428.65C209.577 430.03 211.467 431.471 213.113 432.938C211.866 425.263 211.667 417.515 211.219 409.772C211.099 407.689 211.272 398.959 210.588 398.2C207.275 398.718 204.851 399.085 201.493 399.288C201.871 407.334 202.218 417.293 203.15 425.217ZM211.942 384.881C211.874 375.404 212.685 367.127 213.593 357.695L213.296 357.463C210.328 360.21 206.237 363.572 203.82 366.581C202.788 372.922 202.275 379.545 201.665 385.955L202.018 386.361C206.045 385.37 207.676 385.026 211.942 384.881ZM810.144 360.261C811.092 367.65 811.99 378.209 811.961 385.681C815.48 386.196 818.185 386.876 821.612 387.876C820.969 380.839 820.356 374.881 819.259 367.914C817.112 365.661 812.752 361.888 810.144 360.261ZM540.116 116.943C540.771 119.903 541.529 122.995 541.895 125.991C551.917 126.038 561.462 127.036 570.986 127.055C568.852 124.436 566.821 121.736 564.897 118.959C556.808 118.319 548.142 117.789 540.116 116.943ZM810.908 431.001C812.721 429.716 814.549 428.452 816.391 427.208C817.601 426.5 818.875 425.808 820.011 425.001C820.658 416.861 821.383 408.784 821.425 400.613L812.493 398.847C811.904 409.786 811.692 419.901 810.908 431.001ZM215.653 338.872C215.522 339.233 225.128 297.881 225.33 299.508C219.367 302.231 218.538 303.288 216.209 309.768C214.713 313.932 205.712 343.349 206.875 346.189C209.223 343.508 212.73 340.998 215.653 338.872ZM412.189 131.133C421.92 129.336 431.338 128.361 441.184 127.403C444.237 118.225 451.951 106.282 457.312 98.0261C459.301 94.9633 464.109 89.3193 465.36 86.4713L465.017 86.1142C447.384 91.6616 432.14 108.477 419.59 121.649C418.136 123.174 412.551 129.261 411.769 130.639L412.189 131.133ZM587.469 89.9065C602.684 101.581 618.512 117.954 629.179 133.893C635.853 134.649 651.898 137.661 658.269 139.658C646.264 126.452 632.376 113.601 617.709 103.408C611.74 99.2594 594.444 90.778 587.469 89.9065ZM737.273 320.617C742.162 341.536 742.721 356.177 744.989 376.655C751.894 377.082 758.776 377.823 765.614 378.874C764.34 364.997 763.125 351.407 760.292 337.746C759.756 335.161 759.172 332.193 758.831 329.585C752.34 326.135 744.207 323.175 737.273 320.617ZM171.278 331.359C174.475 335.398 177.684 339.738 181.551 343.123C185.664 346.291 188.506 348.367 192.959 351.032C194.861 336.984 197.675 323.684 202.687 310.378L202.299 310.015C192.112 316.258 179.939 323.074 171.278 331.359ZM298.233 276.109C291.149 278.14 283.608 279.906 276.43 281.695C273.562 289.492 269.863 303.184 267.044 309.52C267.729 310.067 267.415 309.947 267.882 310.082C273.521 307.519 285.281 302.477 291.068 301.053C292.761 295.838 296.996 279.581 298.755 276.231L298.233 276.109ZM230.994 328.876C237.427 324.704 244.192 321.069 251.22 318.007C255.175 308.627 256.761 297.251 261.432 286.446L261.037 286.052C256.184 287.92 241.449 292.238 239.929 295.83C237.893 300.64 230.749 325.542 230.904 328.769L230.994 328.876ZM724.876 275.717C726.986 281.319 728.876 287.001 730.543 292.75C731.464 295.948 732.603 300.907 733.659 303.87C740.888 307.519 747.935 309.487 754.884 312.778C753.03 305.873 748.406 287.512 745.63 281.64C738.698 279.715 731.78 277.741 724.876 275.717ZM313.459 271.891C312.392 275.082 306.207 293.695 306.785 295.868L308.451 295.393C322.8 291.173 341.885 286.359 356.766 284.343C357.329 279.997 360.584 267.734 362.325 263.707L361.947 263.017C361.69 263.036 360.537 263.102 360.329 263.155C344.747 265.698 328.383 269.724 313.459 271.891ZM792.79 330.646C790.507 319.339 786.43 304.962 781.86 294.507C777.798 292.709 764.146 287.574 759.951 286.638C763.855 296.11 767.248 308.745 769.506 318.862C777.412 322.722 784.967 326.694 792.79 330.646ZM247.887 334.481C243.58 336.848 228.274 344.129 227.529 348.149C225.714 357.939 224.86 371.529 224.582 381.466L225.096 382.306C229.768 381.094 238.571 380.047 243.502 379.89C243.369 372.129 246.055 342.091 248.367 334.936L247.887 334.481ZM772.598 335.78C775.896 348.842 777.676 366.676 778.499 380.341C785.124 381.079 793.276 382.603 799.425 383.102C798.384 374.679 797.692 356.333 795.233 348.647C787.375 343.228 780.432 340.383 772.598 335.78ZM582.772 127.388C593.689 128.885 603.347 129.626 614.464 131.6C602.086 116.195 587.435 101.191 570.277 90.8014C566.9 88.7566 560.649 86.5249 556.83 85.1105C557.911 87.6109 560.593 90.6543 562.28 92.9239C570.353 103.783 577.57 114.804 582.772 127.388ZM589.066 254.468C588.525 260.998 588.028 267.222 587.843 273.788C596.892 274.249 608.34 275.784 617.394 277.019C625.519 278.127 637.873 279.715 645.818 281.749C645.611 277.32 641.645 264.237 639.859 259.971C630.822 258.868 621.664 257.743 612.642 256.81C608.566 256.389 591.908 255.342 589.066 254.468Z"/></svg>